{"asset":{"version":"2.0","generator":"Blockbench 4.12.4 glTF exporter"},"scenes":[{"nodes":[10],"name":"blockbench_export"}],"scene":0,"nodes":[{"name":"arm.left"},{"translation":[0.5,0,0],"name":"arm.right"},{"translation":[-0.25,0,0],"name":"pivot_recoil","children":[0,1]},{"translation":[0,0.625,0],"name":"shoulders","children":[2]},{"translation":[0,0.75,0],"name":"head"},{"translation":[0,0.75,0],"name":"body","children":[3,4]},{"translation":[0.125,0,0],"name":"leg.left"},{"translation":[-0.125,0,0],"name":"leg.right"},{"translation":[0,0.75,0],"name":"hip","children":[6,7]},{"name":"origin","children":[5,8]},{"name":"origin","mesh":0,"children":[9],"skin":0}],"bufferViews":[{"buffer":0,"byteOffset":0,"byteLength":1728,"target":34962,"byteStride":12},{"buffer":0,"byteOffset":1728,"byteLength":1728,"target":34962,"byteStride":12},{"buffer":0,"byteOffset":3456,"byteLength":1152,"target":34962,"byteStride":8},{"buffer":0,"byteOffset":4608,"byteLength":1152,"target":34962,"byteStride":8},{"buffer":0,"byteOffset":5760,"byteLength":2304,"target":34962,"byteStride":16},{"buffer":0,"byteOffset":8064,"byteLength":72,"target":34963},{"buffer":0,"byteOffset":8136,"byteLength":144,"target":34963},{"buffer":0,"byteOffset":8280,"byteLength":72,"target":34963},{"buffer":0,"byteOffset":8352,"byteLength":144,"target":34963},{"buffer":0,"byteOffset":8496,"byteLength":640},{"buffer":0,"byteOffset":9136,"byteLength":4},{"buffer":0,"byteOffset":9140,"byteLength":12},{"buffer":0,"byteOffset":9152,"byteLength":64},{"buffer":0,"byteOffset":9216,"byteLength":192},{"buffer":0,"byteOffset":9408,"byteLength":64},{"buffer":0,"byteOffset":9472,"byteLength":256},{"buffer":0,"byteOffset":9728,"byteLength":64},{"buffer":0,"byteOffset":9792,"byteLength":256},{"buffer":0,"byteOffset":10048,"byteLength":64},{"buffer":0,"byteOffset":10112,"byteLength":192},{"buffer":0,"byteOffset":10304,"byteLength":4},{"buffer":0,"byteOffset":10308,"byteLength":16},{"buffer":0,"byteOffset":10324,"byteLength":4},{"buffer":0,"byteOffset":10328,"byteLength":16},{"buffer":0,"byteOffset":10344,"byteLength":4},{"buffer":0,"byteOffset":10348,"byteLength":12},{"buffer":0,"byteOffset":10360,"byteLength":4},{"buffer":0,"byteOffset":10364,"byteLength":16},{"buffer":0,"byteOffset":10380,"byteLength":4},{"buffer":0,"byteOffset":10384,"byteLength":12},{"buffer":0,"byteOffset":10396,"byteLength":4},{"buffer":0,"byteOffset":10400,"byteLength":12},{"buffer":0,"byteOffset":10412,"byteLength":4},{"buffer":0,"byteOffset":10416,"byteLength":16},{"buffer":0,"byteOffset":10432,"byteLength":4},{"buffer":0,"byteOffset":10436,"byteLength":16},{"buffer":0,"byteOffset":10452,"byteLength":4},{"buffer":0,"byteOffset":10456,"byteLength":12},{"buffer":0,"byteOffset":10468,"byteLength":4},{"buffer":0,"byteOffset":10472,"byteLength":16},{"buffer":0,"byteOffset":10488,"byteLength":4},{"buffer":0,"byteOffset":10492,"byteLength":12},{"buffer":0,"byteOffset":10504,"byteLength":4},{"buffer":0,"byteOffset":10508,"byteLength":12},{"buffer":0,"byteOffset":10520,"byteLength":4},{"buffer":0,"byteOffset":10524,"byteLength":16},{"buffer":0,"byteOffset":10540,"byteLength":4},{"buffer":0,"byteOffset":10544,"byteLength":16},{"buffer":0,"byteOffset":10560,"byteLength":4},{"buffer":0,"byteOffset":10564,"byteLength":16},{"buffer":0,"byteOffset":10580,"byteLength":4},{"buffer":0,"byteOffset":10584,"byteLength":12},{"buffer":0,"byteOffset":10596,"byteLength":4},{"buffer":0,"byteOffset":10600,"byteLength":16},{"buffer":0,"byteOffset":10616,"byteLength":4},{"buffer":0,"byteOffset":10620,"byteLength":12},{"buffer":0,"byteOffset":10632,"byteLength":4},{"buffer":0,"byteOffset":10636,"byteLength":12},{"buffer":0,"byteOffset":10648,"byteLength":4},{"buffer":0,"byteOffset":10652,"byteLength":16},{"buffer":0,"byteOffset":10668,"byteLength":64},{"buffer":0,"byteOffset":10732,"byteLength":256},{"buffer":0,"byteOffset":10988,"byteLength":4},{"buffer":0,"byteOffset":10992,"byteLength":16},{"buffer":0,"byteOffset":11008,"byteLength":64},{"buffer":0,"byteOffset":11072,"byteLength":192},{"buffer":0,"byteOffset":11264,"byteLength":4},{"buffer":0,"byteOffset":11268,"byteLength":16},{"buffer":0,"byteOffset":11284,"byteLength":4},{"buffer":0,"byteOffset":11288,"byteLength":12},{"buffer":0,"byteOffset":11300,"byteLength":4},{"buffer":0,"byteOffset":11304,"byteLength":12},{"buffer":0,"byteOffset":11316,"byteLength":4},{"buffer":0,"byteOffset":11320,"byteLength":16},{"buffer":0,"byteOffset":11336,"byteLength":4},{"buffer":0,"byteOffset":11340,"byteLength":12},{"buffer":0,"byteOffset":11352,"byteLength":4},{"buffer":0,"byteOffset":11356,"byteLength":16},{"buffer":0,"byteOffset":11372,"byteLength":4},{"buffer":0,"byteOffset":11376,"byteLength":16},{"buffer":0,"byteOffset":11392,"byteLength":4},{"buffer":0,"byteOffset":11396,"byteLength":12},{"buffer":0,"byteOffset":11408,"byteLength":4},{"buffer":0,"byteOffset":11412,"byteLength":16},{"buffer":0,"byteOffset":11428,"byteLength":4},{"buffer":0,"byteOffset":11432,"byteLength":12},{"buffer":0,"byteOffset":11444,"byteLength":12},{"buffer":0,"byteOffset":11456,"byteLength":36}],"buffers":[{"byteLength":11492,"uri":"data:application/octet-stream;base64,"}],"accessors":[{"bufferView":0,"componentType":5126,"count":144,"max":[0.5,2,0.25],"min":[-0.5,0,-0.25],"type":"VEC3"},{"bufferView":1,"componentType":5126,"count":144,"max":[1,1,1],"min":[-1,-1,-1],"type":"VEC3"},{"bufferView":2,"componentType":5126,"count":144,"max":[0.5,0.75],"min":[0,0],"type":"VEC2"},{"bufferView":3,"componentType":5123,"count":144,"max":[0,9,0,0],"min":[0,1,0,0],"type":"VEC4"},{"bufferView":4,"componentType":5126,"count":144,"max":[0,1,0,0],"min":[0,1,0,0],"type":"VEC4"},{"bufferView":5,"componentType":5123,"count":36,"max":[23],"min":[0],"type":"SCALAR"},{"bufferView":6,"componentType":5123,"count":72,"max":[71],"min":[24],"type":"SCALAR"},{"bufferView":7,"componentType":5123,"count":36,"max":[95],"min":[72],"type":"SCALAR"},{"bufferView":8,"componentType":5123,"count":72,"max":[143],"min":[96],"type":"SCALAR"},{"bufferView":9,"componentType":5126,"count":10,"max":[1,0,0,0,0,1,0,0,0,0,1,0,0.25,0,0,1],"min":[1,0,0,0,0,1,0,0,0,0,1,0,-0.25,-1.5,0,1],"type":"MAT4"},{"bufferView":10,"componentType":5126,"count":1,"max":[0],"min":[0],"type":"SCALAR"},{"bufferView":11,"componentType":5126,"count":1,"max":[0,0,0],"min":[0,0,0],"type":"VEC3"},{"bufferView":12,"componentType":5126,"count":16,"max":[1],"min":[0],"type":"SCALAR"},{"bufferView":13,"componentType":5126,"count":16,"max":[0,0,0],"min":[0,-0.125,0],"type":"VEC3"},{"bufferView":14,"componentType":5126,"count":16,"max":[1],"min":[0],"type":"SCALAR"},{"bufferView":15,"componentType":5126,"count":16,"max":[0.3420201539993286,0,0,1],"min":[-0.3420201539993286,0,0,0.9396926164627075],"type":"VEC4"},{"bufferView":16,"componentType":5126,"count":16,"max":[1],"min":[0],"type":"SCALAR"},{"bufferView":17,"componentType":5126,"count":16,"max":[0.3420201539993286,0,0,1],"min":[-0.3420201539993286,0,0,0.9396926164627075],"type":"VEC4"},{"bufferView":18,"componentType":5126,"count":16,"max":[1],"min":[0],"type":"SCALAR"},{"bufferView":19,"componentType":5126,"count":16,"max":[0,0.671875,0],"min":[0,0.625,0],"type":"VEC3"},{"bufferView":20,"componentType":5126,"count":1,"max":[0],"min":[0],"type":"SCALAR"},{"bufferView":21,"componentType":5126,"count":1,"max":[0.13052618503570557,0,0,0.9914448857307434],"min":[0.13052618503570557,0,0,0.9914448857307434],"type":"VEC4"},{"bufferView":22,"componentType":5126,"count":1,"max":[0],"min":[0],"type":"SCALAR"},{"bufferView":23,"componentType":5126,"count":1,"max":[0.9238795042037964,0,0,0.3826834261417389],"min":[0.9238795042037964,0,0,0.3826834261417389],"type":"VEC4"},{"bufferView":24,"componentType":5126,"count":1,"max":[0],"min":[0],"type":"SCALAR"},{"bufferView":25,"componentType":5126,"count":1,"max":[0,0.6691941618919373,0.04419417306780815],"min":[0,0.6691941618919373,0.04419417306780815],"type":"VEC3"},{"bufferView":26,"componentType":5126,"count":1,"max":[0],"min":[0],"type":"SCALAR"},{"bufferView":27,"componentType":5126,"count":1,"max":[0,0,0.1736481785774231,0.9848077297210693],"min":[0,0,0.1736481785774231,0.9848077297210693],"type":"VEC4"},{"bufferView":28,"componentType":5126,"count":1,"max":[0],"min":[0],"type":"SCALAR"},{"bufferView":29,"componentType":5126,"count":1,"max":[0.0625,-0.0625,0],"min":[0.0625,-0.0625,0],"type":"VEC3"},{"bufferView":30,"componentType":5126,"count":1,"max":[0],"min":[0],"type":"SCALAR"},{"bufferView":31,"componentType":5126,"count":1,"max":[0.375,-0.125,0],"min":[0.375,-0.125,0],"type":"VEC3"},{"bufferView":32,"componentType":5126,"count":1,"max":[0],"min":[0],"type":"SCALAR"},{"bufferView":33,"componentType":5126,"count":1,"max":[0.3826834261417389,0,0,0.9238795042037964],"min":[0.3826834261417389,0,0,0.9238795042037964],"type":"VEC4"},{"bufferView":34,"componentType":5126,"count":1,"max":[0],"min":[0],"type":"SCALAR"},{"bufferView":35,"componentType":5126,"count":1,"max":[0.7071067690849304,0,0,0.7071067690849304],"min":[0.7071067690849304,0,0,0.7071067690849304],"type":"VEC4"},{"bufferView":36,"componentType":5126,"count":1,"max":[0],"min":[0],"type":"SCALAR"},{"bufferView":37,"componentType":5126,"count":1,"max":[0,0.6875,0],"min":[0,0.6875,0],"type":"VEC3"},{"bufferView":38,"componentType":5126,"count":1,"max":[0],"min":[0],"type":"SCALAR"},{"bufferView":39,"componentType":5126,"count":1,"max":[0,0,0.1736481785774231,0.9848077297210693],"min":[0,0,0.1736481785774231,0.9848077297210693],"type":"VEC4"},{"bufferView":40,"componentType":5126,"count":1,"max":[0],"min":[0],"type":"SCALAR"},{"bufferView":41,"componentType":5126,"count":1,"max":[0.0625,-0.0625,0],"min":[0.0625,-0.0625,0],"type":"VEC3"},{"bufferView":42,"componentType":5126,"count":1,"max":[0],"min":[0],"type":"SCALAR"},{"bufferView":43,"componentType":5126,"count":1,"max":[0.375,-0.125,0],"min":[0.375,-0.125,0],"type":"VEC3"},{"bufferView":44,"componentType":5126,"count":1,"max":[0],"min":[0],"type":"SCALAR"},{"bufferView":45,"componentType":5126,"count":1,"max":[0,0,0,1],"min":[0,0,0,1],"type":"VEC4"},{"bufferView":46,"componentType":5126,"count":1,"max":[0],"min":[0],"type":"SCALAR"},{"bufferView":47,"componentType":5126,"count":1,"max":[-0.13052618503570557,0,0,0.9914448857307434],"min":[-0.13052618503570557,0,0,0.9914448857307434],"type":"VEC4"},{"bufferView":48,"componentType":5126,"count":1,"max":[0],"min":[0],"type":"SCALAR"},{"bufferView":49,"componentType":5126,"count":1,"max":[0.3826834261417389,0,0,0.9238795042037964],"min":[0.3826834261417389,0,0,0.9238795042037964],"type":"VEC4"},{"bufferView":50,"componentType":5126,"count":1,"max":[0],"min":[0],"type":"SCALAR"},{"bufferView":51,"componentType":5126,"count":1,"max":[0,0.6691941618919373,-0.04419417306780815],"min":[0,0.6691941618919373,-0.04419417306780815],"type":"VEC3"},{"bufferView":52,"componentType":5126,"count":1,"max":[0],"min":[0],"type":"SCALAR"},{"bufferView":53,"componentType":5126,"count":1,"max":[0,0,0.1736481785774231,0.9848077297210693],"min":[0,0,0.1736481785774231,0.9848077297210693],"type":"VEC4"},{"bufferView":54,"componentType":5126,"count":1,"max":[0],"min":[0],"type":"SCALAR"},{"bufferView":55,"componentType":5126,"count":1,"max":[0.0625,-0.0625,0],"min":[0.0625,-0.0625,0],"type":"VEC3"},{"bufferView":56,"componentType":5126,"count":1,"max":[0],"min":[0],"type":"SCALAR"},{"bufferView":57,"componentType":5126,"count":1,"max":[0.375,-0.125,0],"min":[0.375,-0.125,0],"type":"VEC3"},{"bufferView":58,"componentType":5126,"count":1,"max":[0],"min":[0],"type":"SCALAR"},{"bufferView":59,"componentType":5126,"count":1,"max":[-0.3826834261417389,0,0,0.9238795042037964],"min":[-0.3826834261417389,0,0,0.9238795042037964],"type":"VEC4"},{"bufferView":60,"componentType":5126,"count":16,"max":[1],"min":[0],"type":"SCALAR"},{"bufferView":61,"componentType":5126,"count":16,"max":[0,0,0,1],"min":[-0.04361938685178757,0,0,0.9990482330322266],"type":"VEC4"},{"bufferView":62,"componentType":5126,"count":1,"max":[0],"min":[0],"type":"SCALAR"},{"bufferView":63,"componentType":5126,"count":1,"max":[0.04361938685178757,0,0,0.9990482330322266],"min":[0.04361938685178757,0,0,0.9990482330322266],"type":"VEC4"},{"bufferView":64,"componentType":5126,"count":16,"max":[1],"min":[0],"type":"SCALAR"},{"bufferView":65,"componentType":5126,"count":16,"max":[0,0.6011670231819153,0],"min":[0,0.578125,0],"type":"VEC3"},{"bufferView":66,"componentType":5126,"count":1,"max":[0],"min":[0],"type":"SCALAR"},{"bufferView":67,"componentType":5126,"count":1,"max":[0,-0.13052618503570557,0,0.9914448857307434],"min":[0,-0.13052618503570557,0,0.9914448857307434],"type":"VEC4"},{"bufferView":68,"componentType":5126,"count":1,"max":[0],"min":[0],"type":"SCALAR"},{"bufferView":69,"componentType":5126,"count":1,"max":[0.125,0,0.03125],"min":[0.125,0,0.03125],"type":"VEC3"},{"bufferView":70,"componentType":5126,"count":1,"max":[0],"min":[0],"type":"SCALAR"},{"bufferView":71,"componentType":5126,"count":1,"max":[-0.125,0,-0.09375],"min":[-0.125,0,-0.09375],"type":"VEC3"},{"bufferView":72,"componentType":5126,"count":1,"max":[0],"min":[0],"type":"SCALAR"},{"bufferView":73,"componentType":5126,"count":1,"max":[0.258819043636322,0,0,0.9659258127212524],"min":[0.258819043636322,0,0,0.9659258127212524],"type":"VEC4"},{"bufferView":74,"componentType":5126,"count":1,"max":[0],"min":[0],"type":"SCALAR"},{"bufferView":75,"componentType":5126,"count":1,"max":[0,0.625,-0.0625],"min":[0,0.625,-0.0625],"type":"VEC3"},{"bufferView":76,"componentType":5126,"count":1,"max":[0],"min":[0],"type":"SCALAR"},{"bufferView":77,"componentType":5126,"count":1,"max":[0.258819043636322,0,0,0.9659258127212524],"min":[0.258819043636322,0,0,0.9659258127212524],"type":"VEC4"},{"bufferView":78,"componentType":5126,"count":1,"max":[0],"min":[0],"type":"SCALAR"},{"bufferView":79,"componentType":5126,"count":1,"max":[0,0,0.30070579051971436,0.9537169337272644],"min":[0,0,0.30070579051971436,0.9537169337272644],"type":"VEC4"},{"bufferView":80,"componentType":5126,"count":1,"max":[0],"min":[0],"type":"SCALAR"},{"bufferView":81,"componentType":5126,"count":1,"max":[0.09375,-0.046875,-0.03437500074505806],"min":[0.09375,-0.046875,-0.03437500074505806],"type":"VEC3"},{"bufferView":82,"componentType":5126,"count":1,"max":[0],"min":[0],"type":"SCALAR"},{"bufferView":83,"componentType":5126,"count":1,"max":[0,0,-0.08715574443340302,0.9961947202682495],"min":[0,0,-0.08715574443340302,0.9961947202682495],"type":"VEC4"},{"bufferView":84,"componentType":5126,"count":1,"max":[0],"min":[0],"type":"SCALAR"},{"bufferView":85,"componentType":5126,"count":1,"max":[0.4375,-0.0625,-0.0625],"min":[0.4375,-0.0625,-0.0625],"type":"VEC3"},{"bufferView":86,"componentType":5126,"count":3,"max":[1],"min":[0],"type":"SCALAR"},{"bufferView":87,"componentType":5126,"count":3,"max":[-0.25,0.0625,0],"min":[-0.25,0,0],"type":"VEC3"}],"materials":[{"pbrMetallicRoughness":{"metallicFactor":0,"roughnessFactor":1},"alphaMode":"MASK","alphaCutoff":0.05,"doubleSided":true},{"pbrMetallicRoughness":{"metallicFactor":0,"roughnessFactor":1},"alphaMode":"MASK","alphaCutoff":0.05,"doubleSided":true},{"pbrMetallicRoughness":{"metallicFactor":0,"roughnessFactor":1},"alphaMode":"MASK","alphaCutoff":0.05,"doubleSided":true},{"pbrMetallicRoughness":{"metallicFactor":0,"roughnessFactor":1},"alphaMode":"MASK","alphaCutoff":0.05,"doubleSided":true}],"meshes":[{"primitives":[{"mode":4,"attributes":{"POSITION":0,"NORMAL":1,"TEXCOORD_0":2,"JOINTS_0":3,"WEIGHTS_0":4},"indices":5,"material":0},{"mode":4,"attributes":{"POSITION":0,"NORMAL":1,"TEXCOORD_0":2,"JOINTS_0":3,"WEIGHTS_0":4},"indices":6,"material":1},{"mode":4,"attributes":{"POSITION":0,"NORMAL":1,"TEXCOORD_0":2,"JOINTS_0":3,"WEIGHTS_0":4},"indices":7,"material":2},{"mode":4,"attributes":{"POSITION":0,"NORMAL":1,"TEXCOORD_0":2,"JOINTS_0":3,"WEIGHTS_0":4},"indices":8,"material":3}]}],"skins":[{"inverseBindMatrices":9,"joints":[9,5,3,2,0,1,4,8,6,7],"skeleton":9}],"animations":[{"name":"TPose","samplers":[{"input":10,"output":11,"interpolation":"LINEAR"}],"channels":[{"sampler":0,"target":{"node":9,"path":"translation"}}]},{"name":"Walking","samplers":[{"input":12,"output":13,"interpolation":"LINEAR"},{"input":14,"output":15,"interpolation":"LINEAR"},{"input":16,"output":17,"interpolation":"LINEAR"},{"input":18,"output":19,"interpolation":"LINEAR"}],"channels":[{"sampler":0,"target":{"node":9,"path":"translation"}},{"sampler":1,"target":{"node":6,"path":"rotation"}},{"sampler":2,"target":{"node":7,"path":"rotation"}},{"sampler":3,"target":{"node":3,"path":"translation"}}]},{"name":"AimUp","samplers":[{"input":20,"output":21,"interpolation":"LINEAR"},{"input":22,"output":23,"interpolation":"LINEAR"},{"input":24,"output":25,"interpolation":"LINEAR"},{"input":26,"output":27,"interpolation":"LINEAR"},{"input":28,"output":29,"interpolation":"LINEAR"},{"input":30,"output":31,"interpolation":"LINEAR"},{"input":32,"output":33,"interpolation":"LINEAR"}],"channels":[{"sampler":0,"target":{"node":5,"path":"rotation"}},{"sampler":1,"target":{"node":3,"path":"rotation"}},{"sampler":2,"target":{"node":3,"path":"translation"}},{"sampler":3,"target":{"node":0,"path":"rotation"}},{"sampler":4,"target":{"node":0,"path":"translation"}},{"sampler":5,"target":{"node":1,"path":"translation"}},{"sampler":6,"target":{"node":4,"path":"rotation"}}]},{"name":"AimFoward","samplers":[{"input":34,"output":35,"interpolation":"LINEAR"},{"input":36,"output":37,"interpolation":"LINEAR"},{"input":38,"output":39,"interpolation":"LINEAR"},{"input":40,"output":41,"interpolation":"LINEAR"},{"input":42,"output":43,"interpolation":"LINEAR"},{"input":44,"output":45,"interpolation":"LINEAR"}],"channels":[{"sampler":0,"target":{"node":3,"path":"rotation"}},{"sampler":1,"target":{"node":3,"path":"translation"}},{"sampler":2,"target":{"node":0,"path":"rotation"}},{"sampler":3,"target":{"node":0,"path":"translation"}},{"sampler":4,"target":{"node":1,"path":"translation"}},{"sampler":5,"target":{"node":4,"path":"rotation"}}]},{"name":"AimDown","samplers":[{"input":46,"output":47,"interpolation":"LINEAR"},{"input":48,"output":49,"interpolation":"LINEAR"},{"input":50,"output":51,"interpolation":"LINEAR"},{"input":52,"output":53,"interpolation":"LINEAR"},{"input":54,"output":55,"interpolation":"LINEAR"},{"input":56,"output":57,"interpolation":"LINEAR"},{"input":58,"output":59,"interpolation":"LINEAR"}],"channels":[{"sampler":0,"target":{"node":5,"path":"rotation"}},{"sampler":1,"target":{"node":3,"path":"rotation"}},{"sampler":2,"target":{"node":3,"path":"translation"}},{"sampler":3,"target":{"node":0,"path":"rotation"}},{"sampler":4,"target":{"node":0,"path":"translation"}},{"sampler":5,"target":{"node":1,"path":"translation"}},{"sampler":6,"target":{"node":4,"path":"rotation"}}]},{"name":"Idle","samplers":[{"input":60,"output":61,"interpolation":"LINEAR"},{"input":62,"output":63,"interpolation":"LINEAR"},{"input":64,"output":65,"interpolation":"LINEAR"},{"input":66,"output":67,"interpolation":"LINEAR"},{"input":68,"output":69,"interpolation":"LINEAR"},{"input":70,"output":71,"interpolation":"LINEAR"}],"channels":[{"sampler":0,"target":{"node":5,"path":"rotation"}},{"sampler":1,"target":{"node":3,"path":"rotation"}},{"sampler":2,"target":{"node":3,"path":"translation"}},{"sampler":3,"target":{"node":6,"path":"rotation"}},{"sampler":4,"target":{"node":6,"path":"translation"}},{"sampler":5,"target":{"node":7,"path":"translation"}}]},{"name":"Posture_Long","samplers":[{"input":72,"output":73,"interpolation":"LINEAR"},{"input":74,"output":75,"interpolation":"LINEAR"}],"channels":[{"sampler":0,"target":{"node":3,"path":"rotation"}},{"sampler":1,"target":{"node":3,"path":"translation"}}]},{"name":"Posture_Short","samplers":[{"input":76,"output":77,"interpolation":"LINEAR"},{"input":78,"output":79,"interpolation":"LINEAR"},{"input":80,"output":81,"interpolation":"LINEAR"},{"input":82,"output":83,"interpolation":"LINEAR"},{"input":84,"output":85,"interpolation":"LINEAR"}],"channels":[{"sampler":0,"target":{"node":3,"path":"rotation"}},{"sampler":1,"target":{"node":0,"path":"rotation"}},{"sampler":2,"target":{"node":0,"path":"translation"}},{"sampler":3,"target":{"node":1,"path":"rotation"}},{"sampler":4,"target":{"node":1,"path":"translation"}}]},{"name":"ShotRecoil","samplers":[{"input":86,"output":87,"interpolation":"LINEAR"}],"channels":[{"sampler":0,"target":{"node":2,"path":"translation"}}]}]}